<?xml version="1.0" encoding="UTF-8" standalone="no"?>
<!DOCTYPE svg PUBLIC "-//W3C//DTD SVG 1.1//EN"
 "http://www.w3.org/Graphics/SVG/1.1/DTD/svg11.dtd">
<!-- Generated by graphviz version 2.43.0 (0)
 -->
<!-- Title: %3 Pages: 1 -->
<svg width="2032pt" height="764pt"
 viewBox="0.00 0.00 2032.33 764.00" xmlns="http://www.w3.org/2000/svg" xmlns:xlink="http://www.w3.org/1999/xlink">
<g id="graph0" class="graph" transform="scale(1 1) rotate(0) translate(4 760)">
<title>%3</title>
<polygon fill="white" stroke="transparent" points="-4,4 -4,-760 2028.33,-760 2028.33,4 -4,4"/>
<!-- [root] kubernetes_deployment.cassandra (expand) -->
<g id="node1" class="node">
<title>[root] kubernetes_deployment.cassandra (expand)</title>
<polygon fill="none" stroke="black" points="757.83,-324 493.83,-324 493.83,-288 757.83,-288 757.83,-324"/>
<text text-anchor="middle" x="625.83" y="-302.3" font-family="Times,serif" font-size="14.00">kubernetes_deployment.cassandra</text>
</g>
<!-- [root] kubernetes_persistent_volume.cassandravolume (expand) -->
<g id="node8" class="node">
<title>[root] kubernetes_persistent_volume.cassandravolume (expand)</title>
<polygon fill="none" stroke="black" points="807.33,-252 444.33,-252 444.33,-216 807.33,-216 807.33,-252"/>
<text text-anchor="middle" x="625.83" y="-230.3" font-family="Times,serif" font-size="14.00">kubernetes_persistent_volume.cassandravolume</text>
</g>
<!-- [root] kubernetes_deployment.cassandra (expand)&#45;&gt;[root] kubernetes_persistent_volume.cassandravolume (expand) -->
<g id="edge1" class="edge">
<title>[root] kubernetes_deployment.cassandra (expand)&#45;&gt;[root] kubernetes_persistent_volume.cassandravolume (expand)</title>
<path fill="none" stroke="black" d="M625.83,-287.7C625.83,-279.98 625.83,-270.71 625.83,-262.11"/>
<polygon fill="black" stroke="black" points="629.33,-262.1 625.83,-252.1 622.33,-262.1 629.33,-262.1"/>
</g>
<!-- [root] kubernetes_persistent_volume_claim.cassandravolume (expand) -->
<g id="node10" class="node">
<title>[root] kubernetes_persistent_volume_claim.cassandravolume (expand)</title>
<polygon fill="none" stroke="black" points="426.83,-252 18.83,-252 18.83,-216 426.83,-216 426.83,-252"/>
<text text-anchor="middle" x="222.83" y="-230.3" font-family="Times,serif" font-size="14.00">kubernetes_persistent_volume_claim.cassandravolume</text>
</g>
<!-- [root] kubernetes_deployment.cassandra (expand)&#45;&gt;[root] kubernetes_persistent_volume_claim.cassandravolume (expand) -->
<g id="edge2" class="edge">
<title>[root] kubernetes_deployment.cassandra (expand)&#45;&gt;[root] kubernetes_persistent_volume_claim.cassandravolume (expand)</title>
<path fill="none" stroke="black" d="M527.76,-287.97C468.28,-277.63 392.31,-264.44 331.07,-253.8"/>
<polygon fill="black" stroke="black" points="331.44,-250.31 320.99,-252.05 330.24,-257.21 331.44,-250.31"/>
</g>
<!-- [root] kubernetes_deployment.kafkaservice (expand) -->
<g id="node2" class="node">
<title>[root] kubernetes_deployment.kafkaservice (expand)</title>
<polygon fill="none" stroke="black" points="1509.33,-324 1228.33,-324 1228.33,-288 1509.33,-288 1509.33,-324"/>
<text text-anchor="middle" x="1368.83" y="-302.3" font-family="Times,serif" font-size="14.00">kubernetes_deployment.kafkaservice</text>
</g>
<!-- [root] kubernetes_deployment.zookeeper (expand) -->
<g id="node5" class="node">
<title>[root] kubernetes_deployment.zookeeper (expand)</title>
<polygon fill="none" stroke="black" points="1828.33,-252 1563.33,-252 1563.33,-216 1828.33,-216 1828.33,-252"/>
<text text-anchor="middle" x="1695.83" y="-230.3" font-family="Times,serif" font-size="14.00">kubernetes_deployment.zookeeper</text>
</g>
<!-- [root] kubernetes_deployment.kafkaservice (expand)&#45;&gt;[root] kubernetes_deployment.zookeeper (expand) -->
<g id="edge3" class="edge">
<title>[root] kubernetes_deployment.kafkaservice (expand)&#45;&gt;[root] kubernetes_deployment.zookeeper (expand)</title>
<path fill="none" stroke="black" d="M1448.41,-287.97C1496.07,-277.76 1556.79,-264.76 1606.15,-254.2"/>
<polygon fill="black" stroke="black" points="1607.14,-257.57 1616.18,-252.05 1605.67,-250.72 1607.14,-257.57"/>
</g>
<!-- [root] kubernetes_persistent_volume.kafkavolume (expand) -->
<g id="node9" class="node">
<title>[root] kubernetes_persistent_volume.kafkavolume (expand)</title>
<polygon fill="none" stroke="black" points="1545.33,-252 1216.33,-252 1216.33,-216 1545.33,-216 1545.33,-252"/>
<text text-anchor="middle" x="1380.83" y="-230.3" font-family="Times,serif" font-size="14.00">kubernetes_persistent_volume.kafkavolume</text>
</g>
<!-- [root] kubernetes_deployment.kafkaservice (expand)&#45;&gt;[root] kubernetes_persistent_volume.kafkavolume (expand) -->
<g id="edge4" class="edge">
<title>[root] kubernetes_deployment.kafkaservice (expand)&#45;&gt;[root] kubernetes_persistent_volume.kafkavolume (expand)</title>
<path fill="none" stroke="black" d="M1371.8,-287.7C1373.12,-279.98 1374.71,-270.71 1376.18,-262.11"/>
<polygon fill="black" stroke="black" points="1379.66,-262.55 1377.9,-252.1 1372.76,-261.37 1379.66,-262.55"/>
</g>
<!-- [root] kubernetes_persistent_volume_claim.kafkavolume (expand) -->
<g id="node11" class="node">
<title>[root] kubernetes_persistent_volume_claim.kafkavolume (expand)</title>
<polygon fill="none" stroke="black" points="1198.83,-252 824.83,-252 824.83,-216 1198.83,-216 1198.83,-252"/>
<text text-anchor="middle" x="1011.83" y="-230.3" font-family="Times,serif" font-size="14.00">kubernetes_persistent_volume_claim.kafkavolume</text>
</g>
<!-- [root] kubernetes_deployment.kafkaservice (expand)&#45;&gt;[root] kubernetes_persistent_volume_claim.kafkavolume (expand) -->
<g id="edge5" class="edge">
<title>[root] kubernetes_deployment.kafkaservice (expand)&#45;&gt;[root] kubernetes_persistent_volume_claim.kafkavolume (expand)</title>
<path fill="none" stroke="black" d="M1281.96,-287.97C1229.59,-277.7 1162.8,-264.6 1108.73,-254"/>
<polygon fill="black" stroke="black" points="1109.27,-250.54 1098.79,-252.05 1107.93,-257.41 1109.27,-250.54"/>
</g>
<!-- [root] kubernetes_deployment.redditproducer (expand) -->
<g id="node3" class="node">
<title>[root] kubernetes_deployment.redditproducer (expand)</title>
<polygon fill="none" stroke="black" points="775.83,-396 475.83,-396 475.83,-360 775.83,-360 775.83,-396"/>
<text text-anchor="middle" x="625.83" y="-374.3" font-family="Times,serif" font-size="14.00">kubernetes_deployment.redditproducer</text>
</g>
<!-- [root] kubernetes_deployment.redditproducer (expand)&#45;&gt;[root] kubernetes_deployment.cassandra (expand) -->
<g id="edge6" class="edge">
<title>[root] kubernetes_deployment.redditproducer (expand)&#45;&gt;[root] kubernetes_deployment.cassandra (expand)</title>
<path fill="none" stroke="black" d="M625.83,-359.7C625.83,-351.98 625.83,-342.71 625.83,-334.11"/>
<polygon fill="black" stroke="black" points="629.33,-334.1 625.83,-324.1 622.33,-334.1 629.33,-334.1"/>
</g>
<!-- [root] kubernetes_deployment.redditproducer (expand)&#45;&gt;[root] kubernetes_deployment.kafkaservice (expand) -->
<g id="edge7" class="edge">
<title>[root] kubernetes_deployment.redditproducer (expand)&#45;&gt;[root] kubernetes_deployment.kafkaservice (expand)</title>
<path fill="none" stroke="black" d="M776.19,-362.83C904.79,-350.72 1088.99,-333.36 1217.79,-321.23"/>
<polygon fill="black" stroke="black" points="1218.5,-324.68 1228.13,-320.26 1217.85,-317.71 1218.5,-324.68"/>
</g>
<!-- [root] kubernetes_secret.credentials (expand) -->
<g id="node12" class="node">
<title>[root] kubernetes_secret.credentials (expand)</title>
<polygon fill="none" stroke="black" points="291.83,-324 59.83,-324 59.83,-288 291.83,-288 291.83,-324"/>
<text text-anchor="middle" x="175.83" y="-302.3" font-family="Times,serif" font-size="14.00">kubernetes_secret.credentials</text>
</g>
<!-- [root] kubernetes_deployment.redditproducer (expand)&#45;&gt;[root] kubernetes_secret.credentials (expand) -->
<g id="edge8" class="edge">
<title>[root] kubernetes_deployment.redditproducer (expand)&#45;&gt;[root] kubernetes_secret.credentials (expand)</title>
<path fill="none" stroke="black" d="M516.32,-359.97C449.5,-349.57 364.02,-336.27 295.43,-325.6"/>
<polygon fill="black" stroke="black" points="295.86,-322.13 285.44,-324.05 294.78,-329.05 295.86,-322.13"/>
</g>
<!-- [root] kubernetes_deployment.spark (expand) -->
<g id="node4" class="node">
<title>[root] kubernetes_deployment.spark (expand)</title>
<polygon fill="none" stroke="black" points="1008.83,-540 776.83,-540 776.83,-504 1008.83,-504 1008.83,-540"/>
<text text-anchor="middle" x="892.83" y="-518.3" font-family="Times,serif" font-size="14.00">kubernetes_deployment.spark</text>
</g>
<!-- [root] kubernetes_service.cassandra (expand) -->
<g id="node13" class="node">
<title>[root] kubernetes_service.cassandra (expand)</title>
<polygon fill="none" stroke="black" points="1008.33,-468 777.33,-468 777.33,-432 1008.33,-432 1008.33,-468"/>
<text text-anchor="middle" x="892.83" y="-446.3" font-family="Times,serif" font-size="14.00">kubernetes_service.cassandra</text>
</g>
<!-- [root] kubernetes_deployment.spark (expand)&#45;&gt;[root] kubernetes_service.cassandra (expand) -->
<g id="edge9" class="edge">
<title>[root] kubernetes_deployment.spark (expand)&#45;&gt;[root] kubernetes_service.cassandra (expand)</title>
<path fill="none" stroke="black" d="M892.83,-503.7C892.83,-495.98 892.83,-486.71 892.83,-478.11"/>
<polygon fill="black" stroke="black" points="896.33,-478.1 892.83,-468.1 889.33,-478.1 896.33,-478.1"/>
</g>
<!-- [root] kubernetes_service.redditproducer (expand) -->
<g id="node16" class="node">
<title>[root] kubernetes_service.redditproducer (expand)</title>
<polygon fill="none" stroke="black" points="759.33,-468 492.33,-468 492.33,-432 759.33,-432 759.33,-468"/>
<text text-anchor="middle" x="625.83" y="-446.3" font-family="Times,serif" font-size="14.00">kubernetes_service.redditproducer</text>
</g>
<!-- [root] kubernetes_deployment.spark (expand)&#45;&gt;[root] kubernetes_service.redditproducer (expand) -->
<g id="edge10" class="edge">
<title>[root] kubernetes_deployment.spark (expand)&#45;&gt;[root] kubernetes_service.redditproducer (expand)</title>
<path fill="none" stroke="black" d="M827.86,-503.97C789.5,-493.91 740.78,-481.14 700.8,-470.65"/>
<polygon fill="black" stroke="black" points="701.66,-467.26 691.1,-468.11 699.88,-474.03 701.66,-467.26"/>
</g>
<!-- [root] kubernetes_namespace.pipeline&#45;namespace (expand) -->
<g id="node6" class="node">
<title>[root] kubernetes_namespace.pipeline&#45;namespace (expand)</title>
<polygon fill="none" stroke="black" points="1176.33,-180 847.33,-180 847.33,-144 1176.33,-144 1176.33,-180"/>
<text text-anchor="middle" x="1011.83" y="-158.3" font-family="Times,serif" font-size="14.00">kubernetes_namespace.pipeline&#45;namespace</text>
</g>
<!-- [root] kubernetes_deployment.zookeeper (expand)&#45;&gt;[root] kubernetes_namespace.pipeline&#45;namespace (expand) -->
<g id="edge11" class="edge">
<title>[root] kubernetes_deployment.zookeeper (expand)&#45;&gt;[root] kubernetes_namespace.pipeline&#45;namespace (expand)</title>
<path fill="none" stroke="black" d="M1563,-216.9C1560.25,-216.59 1557.53,-216.29 1554.83,-216 1431.91,-202.59 1293.16,-189.08 1186.69,-179.05"/>
<polygon fill="black" stroke="black" points="1186.77,-175.54 1176.49,-178.09 1186.11,-182.51 1186.77,-175.54"/>
</g>
<!-- [root] provider[&quot;registry.terraform.io/hashicorp/kubernetes&quot;] -->
<g id="node19" class="node">
<title>[root] provider[&quot;registry.terraform.io/hashicorp/kubernetes&quot;]</title>
<polygon fill="none" stroke="black" points="785.83,-108 411.64,-90 785.83,-72 1160.02,-90 785.83,-108"/>
<text text-anchor="middle" x="785.83" y="-86.3" font-family="Times,serif" font-size="14.00">provider[&quot;registry.terraform.io/hashicorp/kubernetes&quot;]</text>
</g>
<!-- [root] kubernetes_namespace.pipeline&#45;namespace (expand)&#45;&gt;[root] provider[&quot;registry.terraform.io/hashicorp/kubernetes&quot;] -->
<g id="edge12" class="edge">
<title>[root] kubernetes_namespace.pipeline&#45;namespace (expand)&#45;&gt;[root] provider[&quot;registry.terraform.io/hashicorp/kubernetes&quot;]</title>
<path fill="none" stroke="black" d="M956.83,-143.97C922.32,-133.28 877.9,-119.52 842.98,-108.7"/>
<polygon fill="black" stroke="black" points="843.99,-105.35 833.4,-105.73 841.92,-112.04 843.99,-105.35"/>
</g>
<!-- [root] var.namespace -->
<g id="node21" class="node">
<title>[root] var.namespace</title>
<polygon fill="none" stroke="black" points="1293.83,-108 1177.83,-108 1177.83,-72 1299.83,-72 1299.83,-102 1293.83,-108"/>
<polyline fill="none" stroke="black" points="1293.83,-108 1293.83,-102 "/>
<polyline fill="none" stroke="black" points="1299.83,-102 1293.83,-102 "/>
<text text-anchor="middle" x="1238.83" y="-86.3" font-family="Times,serif" font-size="14.00">var.namespace</text>
</g>
<!-- [root] kubernetes_namespace.pipeline&#45;namespace (expand)&#45;&gt;[root] var.namespace -->
<g id="edge13" class="edge">
<title>[root] kubernetes_namespace.pipeline&#45;namespace (expand)&#45;&gt;[root] var.namespace</title>
<path fill="none" stroke="black" d="M1067.07,-143.97C1099.2,-134.06 1139.88,-121.51 1173.58,-111.12"/>
<polygon fill="black" stroke="black" points="1174.82,-114.4 1183.34,-108.11 1172.76,-107.71 1174.82,-114.4"/>
</g>
<!-- [root] kubernetes_network_policy.pipeline_network (expand) -->
<g id="node7" class="node">
<title>[root] kubernetes_network_policy.pipeline_network (expand)</title>
<polygon fill="none" stroke="black" points="2024.33,-540 1689.33,-540 1689.33,-504 2024.33,-504 2024.33,-540"/>
<text text-anchor="middle" x="1856.83" y="-518.3" font-family="Times,serif" font-size="14.00">kubernetes_network_policy.pipeline_network</text>
</g>
<!-- [root] kubernetes_network_policy.pipeline_network (expand)&#45;&gt;[root] kubernetes_namespace.pipeline&#45;namespace (expand) -->
<g id="edge14" class="edge">
<title>[root] kubernetes_network_policy.pipeline_network (expand)&#45;&gt;[root] kubernetes_namespace.pipeline&#45;namespace (expand)</title>
<path fill="none" stroke="black" d="M1856.83,-503.95C1856.83,-477.29 1856.83,-424.11 1856.83,-379 1856.83,-379 1856.83,-379 1856.83,-305 1856.83,-264.55 1868.44,-242.43 1837.83,-216 1789.77,-174.5 1414.34,-165.04 1186.49,-163.16"/>
<polygon fill="black" stroke="black" points="1186.45,-159.66 1176.43,-163.08 1186.4,-166.66 1186.45,-159.66"/>
</g>
<!-- [root] kubernetes_persistent_volume.cassandravolume (expand)&#45;&gt;[root] kubernetes_namespace.pipeline&#45;namespace (expand) -->
<g id="edge15" class="edge">
<title>[root] kubernetes_persistent_volume.cassandravolume (expand)&#45;&gt;[root] kubernetes_namespace.pipeline&#45;namespace (expand)</title>
<path fill="none" stroke="black" d="M719.76,-215.97C776.62,-205.66 849.2,-192.49 907.79,-181.87"/>
<polygon fill="black" stroke="black" points="908.6,-185.28 917.81,-180.05 907.35,-178.39 908.6,-185.28"/>
</g>
<!-- [root] kubernetes_persistent_volume.kafkavolume (expand)&#45;&gt;[root] kubernetes_namespace.pipeline&#45;namespace (expand) -->
<g id="edge16" class="edge">
<title>[root] kubernetes_persistent_volume.kafkavolume (expand)&#45;&gt;[root] kubernetes_namespace.pipeline&#45;namespace (expand)</title>
<path fill="none" stroke="black" d="M1291.03,-215.97C1236.8,-205.68 1167.58,-192.55 1111.64,-181.93"/>
<polygon fill="black" stroke="black" points="1112.19,-178.48 1101.71,-180.05 1110.88,-185.35 1112.19,-178.48"/>
</g>
<!-- [root] kubernetes_persistent_volume_claim.cassandravolume (expand)&#45;&gt;[root] kubernetes_namespace.pipeline&#45;namespace (expand) -->
<g id="edge17" class="edge">
<title>[root] kubernetes_persistent_volume_claim.cassandravolume (expand)&#45;&gt;[root] kubernetes_namespace.pipeline&#45;namespace (expand)</title>
<path fill="none" stroke="black" d="M414.58,-215.99C543.48,-204.55 712.04,-189.6 837.21,-178.49"/>
<polygon fill="black" stroke="black" points="837.63,-181.97 847.28,-177.6 837.01,-175 837.63,-181.97"/>
</g>
<!-- [root] kubernetes_persistent_volume_claim.kafkavolume (expand)&#45;&gt;[root] kubernetes_namespace.pipeline&#45;namespace (expand) -->
<g id="edge18" class="edge">
<title>[root] kubernetes_persistent_volume_claim.kafkavolume (expand)&#45;&gt;[root] kubernetes_namespace.pipeline&#45;namespace (expand)</title>
<path fill="none" stroke="black" d="M1011.83,-215.7C1011.83,-207.98 1011.83,-198.71 1011.83,-190.11"/>
<polygon fill="black" stroke="black" points="1015.33,-190.1 1011.83,-180.1 1008.33,-190.1 1015.33,-190.1"/>
</g>
<!-- [root] kubernetes_secret.credentials (expand)&#45;&gt;[root] kubernetes_namespace.pipeline&#45;namespace (expand) -->
<g id="edge19" class="edge">
<title>[root] kubernetes_secret.credentials (expand)&#45;&gt;[root] kubernetes_namespace.pipeline&#45;namespace (expand)</title>
<path fill="none" stroke="black" d="M87.96,-287.97C32.83,-273.56 -22.24,-249.81 9.83,-216 37.79,-186.52 557.19,-171.86 836.87,-166.08"/>
<polygon fill="black" stroke="black" points="837.2,-169.57 847.13,-165.87 837.06,-162.57 837.2,-169.57"/>
</g>
<!-- [root] kubernetes_service.cassandra (expand)&#45;&gt;[root] kubernetes_deployment.cassandra (expand) -->
<g id="edge20" class="edge">
<title>[root] kubernetes_service.cassandra (expand)&#45;&gt;[root] kubernetes_deployment.cassandra (expand)</title>
<path fill="none" stroke="black" d="M875.98,-431.69C855.89,-411.92 820.54,-379.77 784.83,-360 760,-346.26 731.02,-335.3 704.64,-326.99"/>
<polygon fill="black" stroke="black" points="705.64,-323.63 695.06,-324.05 703.59,-330.33 705.64,-323.63"/>
</g>
<!-- [root] kubernetes_service.kafdrop (expand) -->
<g id="node14" class="node">
<title>[root] kubernetes_service.kafdrop (expand)</title>
<polygon fill="none" stroke="black" points="1467.83,-396 1253.83,-396 1253.83,-360 1467.83,-360 1467.83,-396"/>
<text text-anchor="middle" x="1360.83" y="-374.3" font-family="Times,serif" font-size="14.00">kubernetes_service.kafdrop</text>
</g>
<!-- [root] kubernetes_service.kafdrop (expand)&#45;&gt;[root] kubernetes_deployment.kafkaservice (expand) -->
<g id="edge21" class="edge">
<title>[root] kubernetes_service.kafdrop (expand)&#45;&gt;[root] kubernetes_deployment.kafkaservice (expand)</title>
<path fill="none" stroke="black" d="M1362.81,-359.7C1363.69,-351.98 1364.75,-342.71 1365.73,-334.11"/>
<polygon fill="black" stroke="black" points="1369.22,-334.44 1366.88,-324.1 1362.26,-333.64 1369.22,-334.44"/>
</g>
<!-- [root] kubernetes_service.kafkaservice (expand) -->
<g id="node15" class="node">
<title>[root] kubernetes_service.kafkaservice (expand)</title>
<polygon fill="none" stroke="black" points="1632.83,-540 1384.83,-540 1384.83,-504 1632.83,-504 1632.83,-540"/>
<text text-anchor="middle" x="1508.83" y="-518.3" font-family="Times,serif" font-size="14.00">kubernetes_service.kafkaservice</text>
</g>
<!-- [root] kubernetes_service.kafkaservice (expand)&#45;&gt;[root] kubernetes_deployment.kafkaservice (expand) -->
<g id="edge22" class="edge">
<title>[root] kubernetes_service.kafkaservice (expand)&#45;&gt;[root] kubernetes_deployment.kafkaservice (expand)</title>
<path fill="none" stroke="black" d="M1510.08,-503.98C1511.5,-472.25 1510.18,-403.38 1476.83,-360 1466.4,-346.43 1451.59,-336.12 1436.26,-328.37"/>
<polygon fill="black" stroke="black" points="1437.75,-325.2 1427.21,-324.1 1434.76,-331.54 1437.75,-325.2"/>
</g>
<!-- [root] kubernetes_service.redditproducer (expand)&#45;&gt;[root] kubernetes_deployment.redditproducer (expand) -->
<g id="edge23" class="edge">
<title>[root] kubernetes_service.redditproducer (expand)&#45;&gt;[root] kubernetes_deployment.redditproducer (expand)</title>
<path fill="none" stroke="black" d="M625.83,-431.7C625.83,-423.98 625.83,-414.71 625.83,-406.11"/>
<polygon fill="black" stroke="black" points="629.33,-406.1 625.83,-396.1 622.33,-406.1 629.33,-406.1"/>
</g>
<!-- [root] kubernetes_service.spark (expand) -->
<g id="node17" class="node">
<title>[root] kubernetes_service.spark (expand)</title>
<polygon fill="none" stroke="black" points="1160.33,-612 961.33,-612 961.33,-576 1160.33,-576 1160.33,-612"/>
<text text-anchor="middle" x="1060.83" y="-590.3" font-family="Times,serif" font-size="14.00">kubernetes_service.spark</text>
</g>
<!-- [root] kubernetes_service.spark (expand)&#45;&gt;[root] kubernetes_deployment.spark (expand) -->
<g id="edge24" class="edge">
<title>[root] kubernetes_service.spark (expand)&#45;&gt;[root] kubernetes_deployment.spark (expand)</title>
<path fill="none" stroke="black" d="M1019.73,-575.88C996.66,-566.26 967.69,-554.19 943.26,-544.01"/>
<polygon fill="black" stroke="black" points="944.37,-540.68 933.79,-540.07 941.68,-547.15 944.37,-540.68"/>
</g>
<!-- [root] kubernetes_service.zookeeper (expand) -->
<g id="node18" class="node">
<title>[root] kubernetes_service.zookeeper (expand)</title>
<polygon fill="none" stroke="black" points="1772.83,-612 1540.83,-612 1540.83,-576 1772.83,-576 1772.83,-612"/>
<text text-anchor="middle" x="1656.83" y="-590.3" font-family="Times,serif" font-size="14.00">kubernetes_service.zookeeper</text>
</g>
<!-- [root] kubernetes_service.zookeeper (expand)&#45;&gt;[root] kubernetes_deployment.zookeeper (expand) -->
<g id="edge25" class="edge">
<title>[root] kubernetes_service.zookeeper (expand)&#45;&gt;[root] kubernetes_deployment.zookeeper (expand)</title>
<path fill="none" stroke="black" d="M1657.62,-575.96C1658.79,-549.3 1660.83,-496.13 1660.83,-451 1660.83,-451 1660.83,-451 1660.83,-377 1660.83,-335.84 1674.86,-289.88 1685.16,-261.69"/>
<polygon fill="black" stroke="black" points="1688.5,-262.74 1688.75,-252.15 1681.95,-260.28 1688.5,-262.74"/>
</g>
<!-- [root] var.kube_config -->
<g id="node20" class="node">
<title>[root] var.kube_config</title>
<polygon fill="none" stroke="black" points="843.33,-36 722.33,-36 722.33,0 849.33,0 849.33,-30 843.33,-36"/>
<polyline fill="none" stroke="black" points="843.33,-36 843.33,-30 "/>
<polyline fill="none" stroke="black" points="849.33,-30 843.33,-30 "/>
<text text-anchor="middle" x="785.83" y="-14.3" font-family="Times,serif" font-size="14.00">var.kube_config</text>
</g>
<!-- [root] provider[&quot;registry.terraform.io/hashicorp/kubernetes&quot;]&#45;&gt;[root] var.kube_config -->
<g id="edge31" class="edge">
<title>[root] provider[&quot;registry.terraform.io/hashicorp/kubernetes&quot;]&#45;&gt;[root] var.kube_config</title>
<path fill="none" stroke="black" d="M785.83,-71.7C785.83,-63.98 785.83,-54.71 785.83,-46.11"/>
<polygon fill="black" stroke="black" points="789.33,-46.1 785.83,-36.1 782.33,-46.1 789.33,-46.1"/>
</g>
<!-- [root] provider[&quot;registry.terraform.io/hashicorp/kubernetes&quot;] (close) -->
<g id="node22" class="node">
<title>[root] provider[&quot;registry.terraform.io/hashicorp/kubernetes&quot;] (close)</title>
<ellipse fill="none" stroke="black" cx="1508.83" cy="-666" rx="326.04" ry="18"/>
<text text-anchor="middle" x="1508.83" y="-662.3" font-family="Times,serif" font-size="14.00">[root] provider[&quot;registry.terraform.io/hashicorp/kubernetes&quot;] (close)</text>
</g>
<!-- [root] provider[&quot;registry.terraform.io/hashicorp/kubernetes&quot;] (close)&#45;&gt;[root] kubernetes_network_policy.pipeline_network (expand) -->
<g id="edge26" class="edge">
<title>[root] provider[&quot;registry.terraform.io/hashicorp/kubernetes&quot;] (close)&#45;&gt;[root] kubernetes_network_policy.pipeline_network (expand)</title>
<path fill="none" stroke="black" d="M1678.08,-650.57C1714.01,-642.57 1750.5,-630.4 1781.83,-612 1807.78,-596.75 1828.93,-569.12 1842.07,-548.67"/>
<polygon fill="black" stroke="black" points="1845.07,-550.47 1847.37,-540.13 1839.12,-546.78 1845.07,-550.47"/>
</g>
<!-- [root] provider[&quot;registry.terraform.io/hashicorp/kubernetes&quot;] (close)&#45;&gt;[root] kubernetes_service.kafdrop (expand) -->
<g id="edge27" class="edge">
<title>[root] provider[&quot;registry.terraform.io/hashicorp/kubernetes&quot;] (close)&#45;&gt;[root] kubernetes_service.kafdrop (expand)</title>
<path fill="none" stroke="black" d="M1481.06,-647.99C1449.48,-626.95 1399.28,-587.97 1375.83,-540 1354.79,-496.95 1355.14,-439.72 1357.71,-406.37"/>
<polygon fill="black" stroke="black" points="1361.23,-406.3 1358.64,-396.03 1354.26,-405.68 1361.23,-406.3"/>
</g>
<!-- [root] provider[&quot;registry.terraform.io/hashicorp/kubernetes&quot;] (close)&#45;&gt;[root] kubernetes_service.kafkaservice (expand) -->
<g id="edge28" class="edge">
<title>[root] provider[&quot;registry.terraform.io/hashicorp/kubernetes&quot;] (close)&#45;&gt;[root] kubernetes_service.kafkaservice (expand)</title>
<path fill="none" stroke="black" d="M1508.83,-647.87C1508.83,-623.67 1508.83,-579.21 1508.83,-550.39"/>
<polygon fill="black" stroke="black" points="1512.33,-550.19 1508.83,-540.19 1505.33,-550.19 1512.33,-550.19"/>
</g>
<!-- [root] provider[&quot;registry.terraform.io/hashicorp/kubernetes&quot;] (close)&#45;&gt;[root] kubernetes_service.spark (expand) -->
<g id="edge29" class="edge">
<title>[root] provider[&quot;registry.terraform.io/hashicorp/kubernetes&quot;] (close)&#45;&gt;[root] kubernetes_service.spark (expand)</title>
<path fill="none" stroke="black" d="M1405.77,-648.9C1335.44,-637.91 1242.4,-623.37 1170.67,-612.16"/>
<polygon fill="black" stroke="black" points="1171.12,-608.69 1160.7,-610.6 1170.04,-615.61 1171.12,-608.69"/>
</g>
<!-- [root] provider[&quot;registry.terraform.io/hashicorp/kubernetes&quot;] (close)&#45;&gt;[root] kubernetes_service.zookeeper (expand) -->
<g id="edge30" class="edge">
<title>[root] provider[&quot;registry.terraform.io/hashicorp/kubernetes&quot;] (close)&#45;&gt;[root] kubernetes_service.zookeeper (expand)</title>
<path fill="none" stroke="black" d="M1544.66,-648.05C1564.78,-638.54 1590.08,-626.57 1611.56,-616.41"/>
<polygon fill="black" stroke="black" points="1613.28,-619.47 1620.82,-612.03 1610.28,-613.14 1613.28,-619.47"/>
</g>
<!-- [root] root -->
<g id="node23" class="node">
<title>[root] root</title>
<ellipse fill="none" stroke="black" cx="1508.83" cy="-738" rx="58.49" ry="18"/>
<text text-anchor="middle" x="1508.83" y="-734.3" font-family="Times,serif" font-size="14.00">[root] root</text>
</g>
<!-- [root] root&#45;&gt;[root] provider[&quot;registry.terraform.io/hashicorp/kubernetes&quot;] (close) -->
<g id="edge32" class="edge">
<title>[root] root&#45;&gt;[root] provider[&quot;registry.terraform.io/hashicorp/kubernetes&quot;] (close)</title>
<path fill="none" stroke="black" d="M1508.83,-719.7C1508.83,-711.98 1508.83,-702.71 1508.83,-694.11"/>
<polygon fill="black" stroke="black" points="1512.33,-694.1 1508.83,-684.1 1505.33,-694.1 1512.33,-694.1"/>
</g>
</g>
</svg>
