<?xml version="1.0" encoding="UTF-8" standalone="no"?>
<!DOCTYPE svg PUBLIC "-//W3C//DTD SVG 1.1//EN"
 "http://www.w3.org/Graphics/SVG/1.1/DTD/svg11.dtd">
<!-- Generated by graphviz version 2.43.0 (0)
 -->
<!-- Title: %3 Pages: 1 -->
<svg width="1252pt" height="764pt"
 viewBox="0.00 0.00 1251.60 764.00" xmlns="http://www.w3.org/2000/svg" xmlns:xlink="http://www.w3.org/1999/xlink">
<g id="graph0" class="graph" transform="scale(1 1) rotate(0) translate(4 760)">
<title>%3</title>
<polygon fill="white" stroke="transparent" points="-4,4 -4,-760 1247.6,-760 1247.6,4 -4,4"/>
<!-- [root] kubernetes_deployment.kafkaservice (expand) -->
<g id="node1" class="node">
<title>[root] kubernetes_deployment.kafkaservice (expand)</title>
<polygon fill="none" stroke="black" points="740.6,-324 459.6,-324 459.6,-288 740.6,-288 740.6,-324"/>
<text text-anchor="middle" x="600.1" y="-302.3" font-family="Times,serif" font-size="14.00">kubernetes_deployment.kafkaservice</text>
</g>
<!-- [root] kubernetes_deployment.zookeeper (expand) -->
<g id="node4" class="node">
<title>[root] kubernetes_deployment.zookeeper (expand)</title>
<polygon fill="none" stroke="black" points="1047.6,-252 782.6,-252 782.6,-216 1047.6,-216 1047.6,-252"/>
<text text-anchor="middle" x="915.1" y="-230.3" font-family="Times,serif" font-size="14.00">kubernetes_deployment.zookeeper</text>
</g>
<!-- [root] kubernetes_deployment.kafkaservice (expand)&#45;&gt;[root] kubernetes_deployment.zookeeper (expand) -->
<g id="edge1" class="edge">
<title>[root] kubernetes_deployment.kafkaservice (expand)&#45;&gt;[root] kubernetes_deployment.zookeeper (expand)</title>
<path fill="none" stroke="black" d="M676.75,-287.97C722.57,-277.78 780.92,-264.82 828.41,-254.26"/>
<polygon fill="black" stroke="black" points="829.37,-257.64 838.37,-252.05 827.85,-250.8 829.37,-257.64"/>
</g>
<!-- [root] kubernetes_persistent_volume.kafkavolume (expand) -->
<g id="node7" class="node">
<title>[root] kubernetes_persistent_volume.kafkavolume (expand)</title>
<polygon fill="none" stroke="black" points="764.6,-252 435.6,-252 435.6,-216 764.6,-216 764.6,-252"/>
<text text-anchor="middle" x="600.1" y="-230.3" font-family="Times,serif" font-size="14.00">kubernetes_persistent_volume.kafkavolume</text>
</g>
<!-- [root] kubernetes_deployment.kafkaservice (expand)&#45;&gt;[root] kubernetes_persistent_volume.kafkavolume (expand) -->
<g id="edge2" class="edge">
<title>[root] kubernetes_deployment.kafkaservice (expand)&#45;&gt;[root] kubernetes_persistent_volume.kafkavolume (expand)</title>
<path fill="none" stroke="black" d="M600.1,-287.7C600.1,-279.98 600.1,-270.71 600.1,-262.11"/>
<polygon fill="black" stroke="black" points="603.6,-262.1 600.1,-252.1 596.6,-262.1 603.6,-262.1"/>
</g>
<!-- [root] kubernetes_persistent_volume_claim.kafkavolume (expand) -->
<g id="node8" class="node">
<title>[root] kubernetes_persistent_volume_claim.kafkavolume (expand)</title>
<polygon fill="none" stroke="black" points="418.1,-252 44.1,-252 44.1,-216 418.1,-216 418.1,-252"/>
<text text-anchor="middle" x="231.1" y="-230.3" font-family="Times,serif" font-size="14.00">kubernetes_persistent_volume_claim.kafkavolume</text>
</g>
<!-- [root] kubernetes_deployment.kafkaservice (expand)&#45;&gt;[root] kubernetes_persistent_volume_claim.kafkavolume (expand) -->
<g id="edge3" class="edge">
<title>[root] kubernetes_deployment.kafkaservice (expand)&#45;&gt;[root] kubernetes_persistent_volume_claim.kafkavolume (expand)</title>
<path fill="none" stroke="black" d="M510.3,-287.97C456.07,-277.68 386.85,-264.55 330.9,-253.93"/>
<polygon fill="black" stroke="black" points="331.45,-250.48 320.98,-252.05 330.15,-257.35 331.45,-250.48"/>
</g>
<!-- [root] kubernetes_deployment.redditproducer (expand) -->
<g id="node2" class="node">
<title>[root] kubernetes_deployment.redditproducer (expand)</title>
<polygon fill="none" stroke="black" points="602.1,-396 302.1,-396 302.1,-360 602.1,-360 602.1,-396"/>
<text text-anchor="middle" x="452.1" y="-374.3" font-family="Times,serif" font-size="14.00">kubernetes_deployment.redditproducer</text>
</g>
<!-- [root] kubernetes_deployment.redditproducer (expand)&#45;&gt;[root] kubernetes_deployment.kafkaservice (expand) -->
<g id="edge4" class="edge">
<title>[root] kubernetes_deployment.redditproducer (expand)&#45;&gt;[root] kubernetes_deployment.kafkaservice (expand)</title>
<path fill="none" stroke="black" d="M488.3,-359.88C508.35,-350.39 533.47,-338.51 554.81,-328.42"/>
<polygon fill="black" stroke="black" points="556.47,-331.51 564.01,-324.07 553.47,-325.18 556.47,-331.51"/>
</g>
<!-- [root] kubernetes_secret.credentials (expand) -->
<g id="node9" class="node">
<title>[root] kubernetes_secret.credentials (expand)</title>
<polygon fill="none" stroke="black" points="287.1,-324 55.1,-324 55.1,-288 287.1,-288 287.1,-324"/>
<text text-anchor="middle" x="171.1" y="-302.3" font-family="Times,serif" font-size="14.00">kubernetes_secret.credentials</text>
</g>
<!-- [root] kubernetes_deployment.redditproducer (expand)&#45;&gt;[root] kubernetes_secret.credentials (expand) -->
<g id="edge5" class="edge">
<title>[root] kubernetes_deployment.redditproducer (expand)&#45;&gt;[root] kubernetes_secret.credentials (expand)</title>
<path fill="none" stroke="black" d="M383.72,-359.97C343.26,-349.89 291.86,-337.08 249.73,-326.59"/>
<polygon fill="black" stroke="black" points="250.33,-323.13 239.78,-324.11 248.64,-329.92 250.33,-323.13"/>
</g>
<!-- [root] kubernetes_deployment.spark (expand) -->
<g id="node3" class="node">
<title>[root] kubernetes_deployment.spark (expand)</title>
<polygon fill="none" stroke="black" points="672.1,-540 440.1,-540 440.1,-504 672.1,-504 672.1,-540"/>
<text text-anchor="middle" x="556.1" y="-518.3" font-family="Times,serif" font-size="14.00">kubernetes_deployment.spark</text>
</g>
<!-- [root] kubernetes_service.redditproducer (expand) -->
<g id="node11" class="node">
<title>[root] kubernetes_service.redditproducer (expand)</title>
<polygon fill="none" stroke="black" points="585.6,-468 318.6,-468 318.6,-432 585.6,-432 585.6,-468"/>
<text text-anchor="middle" x="452.1" y="-446.3" font-family="Times,serif" font-size="14.00">kubernetes_service.redditproducer</text>
</g>
<!-- [root] kubernetes_deployment.spark (expand)&#45;&gt;[root] kubernetes_service.redditproducer (expand) -->
<g id="edge6" class="edge">
<title>[root] kubernetes_deployment.spark (expand)&#45;&gt;[root] kubernetes_service.redditproducer (expand)</title>
<path fill="none" stroke="black" d="M530.66,-503.88C517.31,-494.89 500.77,-483.76 486.32,-474.03"/>
<polygon fill="black" stroke="black" points="487.89,-470.87 477.64,-468.19 483.98,-476.68 487.89,-470.87"/>
</g>
<!-- [root] kubernetes_namespace.pipeline&#45;namespace (expand) -->
<g id="node5" class="node">
<title>[root] kubernetes_namespace.pipeline&#45;namespace (expand)</title>
<polygon fill="none" stroke="black" points="764.6,-180 435.6,-180 435.6,-144 764.6,-144 764.6,-180"/>
<text text-anchor="middle" x="600.1" y="-158.3" font-family="Times,serif" font-size="14.00">kubernetes_namespace.pipeline&#45;namespace</text>
</g>
<!-- [root] kubernetes_deployment.zookeeper (expand)&#45;&gt;[root] kubernetes_namespace.pipeline&#45;namespace (expand) -->
<g id="edge7" class="edge">
<title>[root] kubernetes_deployment.zookeeper (expand)&#45;&gt;[root] kubernetes_namespace.pipeline&#45;namespace (expand)</title>
<path fill="none" stroke="black" d="M838.44,-215.97C792.62,-205.78 734.28,-192.82 686.78,-182.26"/>
<polygon fill="black" stroke="black" points="687.34,-178.8 676.82,-180.05 685.82,-185.64 687.34,-178.8"/>
</g>
<!-- [root] provider[&quot;registry.terraform.io/hashicorp/kubernetes&quot;] -->
<g id="node14" class="node">
<title>[root] provider[&quot;registry.terraform.io/hashicorp/kubernetes&quot;]</title>
<polygon fill="none" stroke="black" points="374.1,-108 -0.1,-90 374.1,-72 748.29,-90 374.1,-108"/>
<text text-anchor="middle" x="374.1" y="-86.3" font-family="Times,serif" font-size="14.00">provider[&quot;registry.terraform.io/hashicorp/kubernetes&quot;]</text>
</g>
<!-- [root] kubernetes_namespace.pipeline&#45;namespace (expand)&#45;&gt;[root] provider[&quot;registry.terraform.io/hashicorp/kubernetes&quot;] -->
<g id="edge8" class="edge">
<title>[root] kubernetes_namespace.pipeline&#45;namespace (expand)&#45;&gt;[root] provider[&quot;registry.terraform.io/hashicorp/kubernetes&quot;]</title>
<path fill="none" stroke="black" d="M545.1,-143.97C510.59,-133.28 466.16,-119.52 431.25,-108.7"/>
<polygon fill="black" stroke="black" points="432.26,-105.35 421.67,-105.73 430.19,-112.04 432.26,-105.35"/>
</g>
<!-- [root] var.namespace -->
<g id="node16" class="node">
<title>[root] var.namespace</title>
<polygon fill="none" stroke="black" points="882.1,-108 766.1,-108 766.1,-72 888.1,-72 888.1,-102 882.1,-108"/>
<polyline fill="none" stroke="black" points="882.1,-108 882.1,-102 "/>
<polyline fill="none" stroke="black" points="888.1,-102 882.1,-102 "/>
<text text-anchor="middle" x="827.1" y="-86.3" font-family="Times,serif" font-size="14.00">var.namespace</text>
</g>
<!-- [root] kubernetes_namespace.pipeline&#45;namespace (expand)&#45;&gt;[root] var.namespace -->
<g id="edge9" class="edge">
<title>[root] kubernetes_namespace.pipeline&#45;namespace (expand)&#45;&gt;[root] var.namespace</title>
<path fill="none" stroke="black" d="M655.34,-143.97C687.47,-134.06 728.14,-121.51 761.85,-111.12"/>
<polygon fill="black" stroke="black" points="763.08,-114.4 771.61,-108.11 761.02,-107.71 763.08,-114.4"/>
</g>
<!-- [root] kubernetes_network_policy.pipeline_network (expand) -->
<g id="node6" class="node">
<title>[root] kubernetes_network_policy.pipeline_network (expand)</title>
<polygon fill="none" stroke="black" points="1243.6,-540 908.6,-540 908.6,-504 1243.6,-504 1243.6,-540"/>
<text text-anchor="middle" x="1076.1" y="-518.3" font-family="Times,serif" font-size="14.00">kubernetes_network_policy.pipeline_network</text>
</g>
<!-- [root] kubernetes_network_policy.pipeline_network (expand)&#45;&gt;[root] kubernetes_namespace.pipeline&#45;namespace (expand) -->
<g id="edge10" class="edge">
<title>[root] kubernetes_network_policy.pipeline_network (expand)&#45;&gt;[root] kubernetes_namespace.pipeline&#45;namespace (expand)</title>
<path fill="none" stroke="black" d="M1076.1,-503.95C1076.1,-477.29 1076.1,-424.11 1076.1,-379 1076.1,-379 1076.1,-379 1076.1,-305 1076.1,-264.55 1087.02,-243.21 1057.1,-216 1035.88,-196.71 894.7,-182.39 774.79,-173.52"/>
<polygon fill="black" stroke="black" points="774.96,-170.03 764.73,-172.79 774.45,-177.01 774.96,-170.03"/>
</g>
<!-- [root] kubernetes_persistent_volume.kafkavolume (expand)&#45;&gt;[root] kubernetes_namespace.pipeline&#45;namespace (expand) -->
<g id="edge11" class="edge">
<title>[root] kubernetes_persistent_volume.kafkavolume (expand)&#45;&gt;[root] kubernetes_namespace.pipeline&#45;namespace (expand)</title>
<path fill="none" stroke="black" d="M600.1,-215.7C600.1,-207.98 600.1,-198.71 600.1,-190.11"/>
<polygon fill="black" stroke="black" points="603.6,-190.1 600.1,-180.1 596.6,-190.1 603.6,-190.1"/>
</g>
<!-- [root] kubernetes_persistent_volume_claim.kafkavolume (expand)&#45;&gt;[root] kubernetes_namespace.pipeline&#45;namespace (expand) -->
<g id="edge12" class="edge">
<title>[root] kubernetes_persistent_volume_claim.kafkavolume (expand)&#45;&gt;[root] kubernetes_namespace.pipeline&#45;namespace (expand)</title>
<path fill="none" stroke="black" d="M320.89,-215.97C375.13,-205.68 444.34,-192.55 500.29,-181.93"/>
<polygon fill="black" stroke="black" points="501.05,-185.35 510.22,-180.05 499.74,-178.48 501.05,-185.35"/>
</g>
<!-- [root] kubernetes_secret.credentials (expand)&#45;&gt;[root] kubernetes_namespace.pipeline&#45;namespace (expand) -->
<g id="edge13" class="edge">
<title>[root] kubernetes_secret.credentials (expand)&#45;&gt;[root] kubernetes_namespace.pipeline&#45;namespace (expand)</title>
<path fill="none" stroke="black" d="M82.51,-287.88C63.89,-280.04 46.47,-268.63 35.1,-252 26.07,-238.79 24.32,-227.83 35.1,-216 61.22,-187.31 269.16,-173.86 425.25,-167.76"/>
<polygon fill="black" stroke="black" points="425.6,-171.25 435.45,-167.37 425.33,-164.25 425.6,-171.25"/>
</g>
<!-- [root] kubernetes_service.kafkaservice (expand) -->
<g id="node10" class="node">
<title>[root] kubernetes_service.kafkaservice (expand)</title>
<polygon fill="none" stroke="black" points="852.1,-468 604.1,-468 604.1,-432 852.1,-432 852.1,-468"/>
<text text-anchor="middle" x="728.1" y="-446.3" font-family="Times,serif" font-size="14.00">kubernetes_service.kafkaservice</text>
</g>
<!-- [root] kubernetes_service.kafkaservice (expand)&#45;&gt;[root] kubernetes_deployment.kafkaservice (expand) -->
<g id="edge14" class="edge">
<title>[root] kubernetes_service.kafkaservice (expand)&#45;&gt;[root] kubernetes_deployment.kafkaservice (expand)</title>
<path fill="none" stroke="black" d="M712.66,-431.87C690.17,-406.92 648.28,-360.45 622.43,-331.77"/>
<polygon fill="black" stroke="black" points="624.89,-329.27 615.59,-324.19 619.69,-333.96 624.89,-329.27"/>
</g>
<!-- [root] kubernetes_service.redditproducer (expand)&#45;&gt;[root] kubernetes_deployment.redditproducer (expand) -->
<g id="edge15" class="edge">
<title>[root] kubernetes_service.redditproducer (expand)&#45;&gt;[root] kubernetes_deployment.redditproducer (expand)</title>
<path fill="none" stroke="black" d="M452.1,-431.7C452.1,-423.98 452.1,-414.71 452.1,-406.11"/>
<polygon fill="black" stroke="black" points="455.6,-406.1 452.1,-396.1 448.6,-406.1 455.6,-406.1"/>
</g>
<!-- [root] kubernetes_service.spark (expand) -->
<g id="node12" class="node">
<title>[root] kubernetes_service.spark (expand)</title>
<polygon fill="none" stroke="black" points="729.6,-612 530.6,-612 530.6,-576 729.6,-576 729.6,-612"/>
<text text-anchor="middle" x="630.1" y="-590.3" font-family="Times,serif" font-size="14.00">kubernetes_service.spark</text>
</g>
<!-- [root] kubernetes_service.spark (expand)&#45;&gt;[root] kubernetes_deployment.spark (expand) -->
<g id="edge16" class="edge">
<title>[root] kubernetes_service.spark (expand)&#45;&gt;[root] kubernetes_deployment.spark (expand)</title>
<path fill="none" stroke="black" d="M611.8,-575.7C602.66,-567.05 591.46,-556.45 581.5,-547.03"/>
<polygon fill="black" stroke="black" points="583.85,-544.43 574.18,-540.1 579.04,-549.52 583.85,-544.43"/>
</g>
<!-- [root] kubernetes_service.zookeeper (expand) -->
<g id="node13" class="node">
<title>[root] kubernetes_service.zookeeper (expand)</title>
<polygon fill="none" stroke="black" points="1005.1,-396 773.1,-396 773.1,-360 1005.1,-360 1005.1,-396"/>
<text text-anchor="middle" x="889.1" y="-374.3" font-family="Times,serif" font-size="14.00">kubernetes_service.zookeeper</text>
</g>
<!-- [root] kubernetes_service.zookeeper (expand)&#45;&gt;[root] kubernetes_deployment.zookeeper (expand) -->
<g id="edge17" class="edge">
<title>[root] kubernetes_service.zookeeper (expand)&#45;&gt;[root] kubernetes_deployment.zookeeper (expand)</title>
<path fill="none" stroke="black" d="M892.23,-359.87C896.66,-335.67 904.8,-291.21 910.08,-262.39"/>
<polygon fill="black" stroke="black" points="913.59,-262.66 911.95,-252.19 906.71,-261.4 913.59,-262.66"/>
</g>
<!-- [root] var.kube_config -->
<g id="node15" class="node">
<title>[root] var.kube_config</title>
<polygon fill="none" stroke="black" points="431.6,-36 310.6,-36 310.6,0 437.6,0 437.6,-30 431.6,-36"/>
<polyline fill="none" stroke="black" points="431.6,-36 431.6,-30 "/>
<polyline fill="none" stroke="black" points="437.6,-30 431.6,-30 "/>
<text text-anchor="middle" x="374.1" y="-14.3" font-family="Times,serif" font-size="14.00">var.kube_config</text>
</g>
<!-- [root] provider[&quot;registry.terraform.io/hashicorp/kubernetes&quot;]&#45;&gt;[root] var.kube_config -->
<g id="edge22" class="edge">
<title>[root] provider[&quot;registry.terraform.io/hashicorp/kubernetes&quot;]&#45;&gt;[root] var.kube_config</title>
<path fill="none" stroke="black" d="M374.1,-71.7C374.1,-63.98 374.1,-54.71 374.1,-46.11"/>
<polygon fill="black" stroke="black" points="377.6,-46.1 374.1,-36.1 370.6,-46.1 377.6,-46.1"/>
</g>
<!-- [root] provider[&quot;registry.terraform.io/hashicorp/kubernetes&quot;] (close) -->
<g id="node17" class="node">
<title>[root] provider[&quot;registry.terraform.io/hashicorp/kubernetes&quot;] (close)</title>
<ellipse fill="none" stroke="black" cx="842.1" cy="-666" rx="326.04" ry="18"/>
<text text-anchor="middle" x="842.1" y="-662.3" font-family="Times,serif" font-size="14.00">[root] provider[&quot;registry.terraform.io/hashicorp/kubernetes&quot;] (close)</text>
</g>
<!-- [root] provider[&quot;registry.terraform.io/hashicorp/kubernetes&quot;] (close)&#45;&gt;[root] kubernetes_network_policy.pipeline_network (expand) -->
<g id="edge18" class="edge">
<title>[root] provider[&quot;registry.terraform.io/hashicorp/kubernetes&quot;] (close)&#45;&gt;[root] kubernetes_network_policy.pipeline_network (expand)</title>
<path fill="none" stroke="black" d="M870.32,-647.87C912.58,-622.23 992.3,-573.85 1039.14,-545.43"/>
<polygon fill="black" stroke="black" points="1041.04,-548.37 1047.77,-540.19 1037.41,-542.39 1041.04,-548.37"/>
</g>
<!-- [root] provider[&quot;registry.terraform.io/hashicorp/kubernetes&quot;] (close)&#45;&gt;[root] kubernetes_service.kafkaservice (expand) -->
<g id="edge19" class="edge">
<title>[root] provider[&quot;registry.terraform.io/hashicorp/kubernetes&quot;] (close)&#45;&gt;[root] kubernetes_service.kafkaservice (expand)</title>
<path fill="none" stroke="black" d="M832.96,-647.85C813.07,-610.52 765.76,-521.69 742.09,-477.26"/>
<polygon fill="black" stroke="black" points="745.07,-475.41 737.28,-468.23 738.89,-478.7 745.07,-475.41"/>
</g>
<!-- [root] provider[&quot;registry.terraform.io/hashicorp/kubernetes&quot;] (close)&#45;&gt;[root] kubernetes_service.spark (expand) -->
<g id="edge20" class="edge">
<title>[root] provider[&quot;registry.terraform.io/hashicorp/kubernetes&quot;] (close)&#45;&gt;[root] kubernetes_service.spark (expand)</title>
<path fill="none" stroke="black" d="M791.05,-648.14C761.07,-638.25 722.98,-625.67 691.39,-615.24"/>
<polygon fill="black" stroke="black" points="692.4,-611.89 681.81,-612.07 690.2,-618.53 692.4,-611.89"/>
</g>
<!-- [root] provider[&quot;registry.terraform.io/hashicorp/kubernetes&quot;] (close)&#45;&gt;[root] kubernetes_service.zookeeper (expand) -->
<g id="edge21" class="edge">
<title>[root] provider[&quot;registry.terraform.io/hashicorp/kubernetes&quot;] (close)&#45;&gt;[root] kubernetes_service.zookeeper (expand)</title>
<path fill="none" stroke="black" d="M844.9,-647.97C852.75,-600.19 875.03,-464.62 884.62,-406.27"/>
<polygon fill="black" stroke="black" points="888.08,-406.74 886.25,-396.31 881.18,-405.61 888.08,-406.74"/>
</g>
<!-- [root] root -->
<g id="node18" class="node">
<title>[root] root</title>
<ellipse fill="none" stroke="black" cx="842.1" cy="-738" rx="58.49" ry="18"/>
<text text-anchor="middle" x="842.1" y="-734.3" font-family="Times,serif" font-size="14.00">[root] root</text>
</g>
<!-- [root] root&#45;&gt;[root] provider[&quot;registry.terraform.io/hashicorp/kubernetes&quot;] (close) -->
<g id="edge23" class="edge">
<title>[root] root&#45;&gt;[root] provider[&quot;registry.terraform.io/hashicorp/kubernetes&quot;] (close)</title>
<path fill="none" stroke="black" d="M842.1,-719.7C842.1,-711.98 842.1,-702.71 842.1,-694.11"/>
<polygon fill="black" stroke="black" points="845.6,-694.1 842.1,-684.1 838.6,-694.1 845.6,-694.1"/>
</g>
</g>
</svg>
