<?xml version="1.0" encoding="UTF-8" standalone="no"?>
<!DOCTYPE svg PUBLIC "-//W3C//DTD SVG 1.1//EN"
 "http://www.w3.org/Graphics/SVG/1.1/DTD/svg11.dtd">
<!-- Generated by graphviz version 2.43.0 (0)
 -->
<!-- Title: %3 Pages: 1 -->
<svg width="1264pt" height="620pt"
 viewBox="0.00 0.00 1263.60 620.00" xmlns="http://www.w3.org/2000/svg" xmlns:xlink="http://www.w3.org/1999/xlink">
<g id="graph0" class="graph" transform="scale(1 1) rotate(0) translate(4 616)">
<title>%3</title>
<polygon fill="white" stroke="transparent" points="-4,4 -4,-616 1259.6,-616 1259.6,4 -4,4"/>
<!-- [root] kubernetes_deployment.kafkaservice (expand) -->
<g id="node1" class="node">
<title>[root] kubernetes_deployment.kafkaservice (expand)</title>
<polygon fill="none" stroke="black" points="925.6,-324 644.6,-324 644.6,-288 925.6,-288 925.6,-324"/>
<text text-anchor="middle" x="785.1" y="-302.3" font-family="Times,serif" font-size="14.00">kubernetes_deployment.kafkaservice</text>
</g>
<!-- [root] kubernetes_deployment.zookeeper (expand) -->
<g id="node3" class="node">
<title>[root] kubernetes_deployment.zookeeper (expand)</title>
<polygon fill="none" stroke="black" points="1255.6,-252 990.6,-252 990.6,-216 1255.6,-216 1255.6,-252"/>
<text text-anchor="middle" x="1123.1" y="-230.3" font-family="Times,serif" font-size="14.00">kubernetes_deployment.zookeeper</text>
</g>
<!-- [root] kubernetes_deployment.kafkaservice (expand)&#45;&gt;[root] kubernetes_deployment.zookeeper (expand) -->
<g id="edge1" class="edge">
<title>[root] kubernetes_deployment.kafkaservice (expand)&#45;&gt;[root] kubernetes_deployment.zookeeper (expand)</title>
<path fill="none" stroke="black" d="M867.35,-287.97C916.72,-277.74 979.64,-264.71 1030.72,-254.13"/>
<polygon fill="black" stroke="black" points="1031.69,-257.51 1040.77,-252.05 1030.27,-250.65 1031.69,-257.51"/>
</g>
<!-- [root] kubernetes_persistent_volume.kafkavolume (expand) -->
<g id="node5" class="node">
<title>[root] kubernetes_persistent_volume.kafkavolume (expand)</title>
<polygon fill="none" stroke="black" points="580.6,-252 251.6,-252 251.6,-216 580.6,-216 580.6,-252"/>
<text text-anchor="middle" x="416.1" y="-230.3" font-family="Times,serif" font-size="14.00">kubernetes_persistent_volume.kafkavolume</text>
</g>
<!-- [root] kubernetes_deployment.kafkaservice (expand)&#45;&gt;[root] kubernetes_persistent_volume.kafkavolume (expand) -->
<g id="edge2" class="edge">
<title>[root] kubernetes_deployment.kafkaservice (expand)&#45;&gt;[root] kubernetes_persistent_volume.kafkavolume (expand)</title>
<path fill="none" stroke="black" d="M695.3,-287.97C641.07,-277.68 571.85,-264.55 515.9,-253.93"/>
<polygon fill="black" stroke="black" points="516.45,-250.48 505.98,-252.05 515.15,-257.35 516.45,-250.48"/>
</g>
<!-- [root] kubernetes_persistent_volume_claim.kafkavolume (expand) -->
<g id="node6" class="node">
<title>[root] kubernetes_persistent_volume_claim.kafkavolume (expand)</title>
<polygon fill="none" stroke="black" points="972.1,-252 598.1,-252 598.1,-216 972.1,-216 972.1,-252"/>
<text text-anchor="middle" x="785.1" y="-230.3" font-family="Times,serif" font-size="14.00">kubernetes_persistent_volume_claim.kafkavolume</text>
</g>
<!-- [root] kubernetes_deployment.kafkaservice (expand)&#45;&gt;[root] kubernetes_persistent_volume_claim.kafkavolume (expand) -->
<g id="edge3" class="edge">
<title>[root] kubernetes_deployment.kafkaservice (expand)&#45;&gt;[root] kubernetes_persistent_volume_claim.kafkavolume (expand)</title>
<path fill="none" stroke="black" d="M785.1,-287.7C785.1,-279.98 785.1,-270.71 785.1,-262.11"/>
<polygon fill="black" stroke="black" points="788.6,-262.1 785.1,-252.1 781.6,-262.1 788.6,-262.1"/>
</g>
<!-- [root] kubernetes_deployment.redditproducer (expand) -->
<g id="node2" class="node">
<title>[root] kubernetes_deployment.redditproducer (expand)</title>
<polygon fill="none" stroke="black" points="694.1,-396 394.1,-396 394.1,-360 694.1,-360 694.1,-396"/>
<text text-anchor="middle" x="544.1" y="-374.3" font-family="Times,serif" font-size="14.00">kubernetes_deployment.redditproducer</text>
</g>
<!-- [root] kubernetes_deployment.redditproducer (expand)&#45;&gt;[root] kubernetes_deployment.kafkaservice (expand) -->
<g id="edge4" class="edge">
<title>[root] kubernetes_deployment.redditproducer (expand)&#45;&gt;[root] kubernetes_deployment.kafkaservice (expand)</title>
<path fill="none" stroke="black" d="M602.74,-359.97C637,-350.01 680.41,-337.41 716.28,-326.99"/>
<polygon fill="black" stroke="black" points="717.56,-330.26 726.19,-324.11 715.61,-323.54 717.56,-330.26"/>
</g>
<!-- [root] kubernetes_secret.credentials (expand) -->
<g id="node7" class="node">
<title>[root] kubernetes_secret.credentials (expand)</title>
<polygon fill="none" stroke="black" points="483.1,-324 251.1,-324 251.1,-288 483.1,-288 483.1,-324"/>
<text text-anchor="middle" x="367.1" y="-302.3" font-family="Times,serif" font-size="14.00">kubernetes_secret.credentials</text>
</g>
<!-- [root] kubernetes_deployment.redditproducer (expand)&#45;&gt;[root] kubernetes_secret.credentials (expand) -->
<g id="edge5" class="edge">
<title>[root] kubernetes_deployment.redditproducer (expand)&#45;&gt;[root] kubernetes_secret.credentials (expand)</title>
<path fill="none" stroke="black" d="M500.8,-359.88C476.39,-350.22 445.7,-338.09 419.89,-327.88"/>
<polygon fill="black" stroke="black" points="420.84,-324.49 410.26,-324.07 418.27,-331 420.84,-324.49"/>
</g>
<!-- [root] kubernetes_namespace.pipeline&#45;namespace (expand) -->
<g id="node4" class="node">
<title>[root] kubernetes_namespace.pipeline&#45;namespace (expand)</title>
<polygon fill="none" stroke="black" points="764.6,-180 435.6,-180 435.6,-144 764.6,-144 764.6,-180"/>
<text text-anchor="middle" x="600.1" y="-158.3" font-family="Times,serif" font-size="14.00">kubernetes_namespace.pipeline&#45;namespace</text>
</g>
<!-- [root] kubernetes_deployment.zookeeper (expand)&#45;&gt;[root] kubernetes_namespace.pipeline&#45;namespace (expand) -->
<g id="edge6" class="edge">
<title>[root] kubernetes_deployment.zookeeper (expand)&#45;&gt;[root] kubernetes_namespace.pipeline&#45;namespace (expand)</title>
<path fill="none" stroke="black" d="M995.83,-215.97C917.68,-205.51 817.6,-192.11 737.63,-181.41"/>
<polygon fill="black" stroke="black" points="737.86,-177.91 727.49,-180.05 736.93,-184.85 737.86,-177.91"/>
</g>
<!-- [root] provider[&quot;registry.terraform.io/hashicorp/kubernetes&quot;] -->
<g id="node11" class="node">
<title>[root] provider[&quot;registry.terraform.io/hashicorp/kubernetes&quot;]</title>
<polygon fill="none" stroke="black" points="374.1,-108 -0.1,-90 374.1,-72 748.29,-90 374.1,-108"/>
<text text-anchor="middle" x="374.1" y="-86.3" font-family="Times,serif" font-size="14.00">provider[&quot;registry.terraform.io/hashicorp/kubernetes&quot;]</text>
</g>
<!-- [root] kubernetes_namespace.pipeline&#45;namespace (expand)&#45;&gt;[root] provider[&quot;registry.terraform.io/hashicorp/kubernetes&quot;] -->
<g id="edge7" class="edge">
<title>[root] kubernetes_namespace.pipeline&#45;namespace (expand)&#45;&gt;[root] provider[&quot;registry.terraform.io/hashicorp/kubernetes&quot;]</title>
<path fill="none" stroke="black" d="M545.1,-143.97C510.59,-133.28 466.16,-119.52 431.25,-108.7"/>
<polygon fill="black" stroke="black" points="432.26,-105.35 421.67,-105.73 430.19,-112.04 432.26,-105.35"/>
</g>
<!-- [root] var.namespace -->
<g id="node13" class="node">
<title>[root] var.namespace</title>
<polygon fill="none" stroke="black" points="882.1,-108 766.1,-108 766.1,-72 888.1,-72 888.1,-102 882.1,-108"/>
<polyline fill="none" stroke="black" points="882.1,-108 882.1,-102 "/>
<polyline fill="none" stroke="black" points="888.1,-102 882.1,-102 "/>
<text text-anchor="middle" x="827.1" y="-86.3" font-family="Times,serif" font-size="14.00">var.namespace</text>
</g>
<!-- [root] kubernetes_namespace.pipeline&#45;namespace (expand)&#45;&gt;[root] var.namespace -->
<g id="edge8" class="edge">
<title>[root] kubernetes_namespace.pipeline&#45;namespace (expand)&#45;&gt;[root] var.namespace</title>
<path fill="none" stroke="black" d="M655.34,-143.97C687.47,-134.06 728.14,-121.51 761.85,-111.12"/>
<polygon fill="black" stroke="black" points="763.08,-114.4 771.61,-108.11 761.02,-107.71 763.08,-114.4"/>
</g>
<!-- [root] kubernetes_persistent_volume.kafkavolume (expand)&#45;&gt;[root] kubernetes_namespace.pipeline&#45;namespace (expand) -->
<g id="edge9" class="edge">
<title>[root] kubernetes_persistent_volume.kafkavolume (expand)&#45;&gt;[root] kubernetes_namespace.pipeline&#45;namespace (expand)</title>
<path fill="none" stroke="black" d="M461.11,-215.88C486.6,-206.18 518.67,-193.98 545.57,-183.74"/>
<polygon fill="black" stroke="black" points="547.13,-186.9 555.23,-180.07 544.64,-180.35 547.13,-186.9"/>
</g>
<!-- [root] kubernetes_persistent_volume_claim.kafkavolume (expand)&#45;&gt;[root] kubernetes_namespace.pipeline&#45;namespace (expand) -->
<g id="edge10" class="edge">
<title>[root] kubernetes_persistent_volume_claim.kafkavolume (expand)&#45;&gt;[root] kubernetes_namespace.pipeline&#45;namespace (expand)</title>
<path fill="none" stroke="black" d="M739.84,-215.88C714.1,-206.14 681.69,-193.87 654.56,-183.61"/>
<polygon fill="black" stroke="black" points="655.8,-180.33 645.21,-180.07 653.32,-186.88 655.8,-180.33"/>
</g>
<!-- [root] kubernetes_secret.credentials (expand)&#45;&gt;[root] kubernetes_namespace.pipeline&#45;namespace (expand) -->
<g id="edge11" class="edge">
<title>[root] kubernetes_secret.credentials (expand)&#45;&gt;[root] kubernetes_namespace.pipeline&#45;namespace (expand)</title>
<path fill="none" stroke="black" d="M288.77,-287.87C270.45,-280.03 253.09,-268.61 242.1,-252 233.26,-238.66 231.64,-228.11 242.1,-216 266.75,-187.43 347.08,-174 425.41,-167.8"/>
<polygon fill="black" stroke="black" points="425.74,-171.28 435.45,-167.04 425.21,-164.3 425.74,-171.28"/>
</g>
<!-- [root] kubernetes_service.kafkaservice (expand) -->
<g id="node8" class="node">
<title>[root] kubernetes_service.kafkaservice (expand)</title>
<polygon fill="none" stroke="black" points="960.1,-396 712.1,-396 712.1,-360 960.1,-360 960.1,-396"/>
<text text-anchor="middle" x="836.1" y="-374.3" font-family="Times,serif" font-size="14.00">kubernetes_service.kafkaservice</text>
</g>
<!-- [root] kubernetes_service.kafkaservice (expand)&#45;&gt;[root] kubernetes_deployment.kafkaservice (expand) -->
<g id="edge12" class="edge">
<title>[root] kubernetes_service.kafkaservice (expand)&#45;&gt;[root] kubernetes_deployment.kafkaservice (expand)</title>
<path fill="none" stroke="black" d="M823.49,-359.7C817.5,-351.47 810.22,-341.48 803.62,-332.42"/>
<polygon fill="black" stroke="black" points="806.28,-330.13 797.56,-324.1 800.62,-334.25 806.28,-330.13"/>
</g>
<!-- [root] kubernetes_service.redditproducer (expand) -->
<g id="node9" class="node">
<title>[root] kubernetes_service.redditproducer (expand)</title>
<polygon fill="none" stroke="black" points="742.6,-468 475.6,-468 475.6,-432 742.6,-432 742.6,-468"/>
<text text-anchor="middle" x="609.1" y="-446.3" font-family="Times,serif" font-size="14.00">kubernetes_service.redditproducer</text>
</g>
<!-- [root] kubernetes_service.redditproducer (expand)&#45;&gt;[root] kubernetes_deployment.redditproducer (expand) -->
<g id="edge13" class="edge">
<title>[root] kubernetes_service.redditproducer (expand)&#45;&gt;[root] kubernetes_deployment.redditproducer (expand)</title>
<path fill="none" stroke="black" d="M593.03,-431.7C585.16,-423.22 575.54,-412.86 566.92,-403.58"/>
<polygon fill="black" stroke="black" points="569.35,-401.05 559.98,-396.1 564.22,-405.81 569.35,-401.05"/>
</g>
<!-- [root] kubernetes_service.zookeeper (expand) -->
<g id="node10" class="node">
<title>[root] kubernetes_service.zookeeper (expand)</title>
<polygon fill="none" stroke="black" points="1125.1,-468 893.1,-468 893.1,-432 1125.1,-432 1125.1,-468"/>
<text text-anchor="middle" x="1009.1" y="-446.3" font-family="Times,serif" font-size="14.00">kubernetes_service.zookeeper</text>
</g>
<!-- [root] kubernetes_service.zookeeper (expand)&#45;&gt;[root] kubernetes_deployment.zookeeper (expand) -->
<g id="edge14" class="edge">
<title>[root] kubernetes_service.zookeeper (expand)&#45;&gt;[root] kubernetes_deployment.zookeeper (expand)</title>
<path fill="none" stroke="black" d="M1018.23,-431.85C1038.12,-394.52 1085.44,-305.69 1109.11,-261.26"/>
<polygon fill="black" stroke="black" points="1112.3,-262.7 1113.92,-252.23 1106.13,-259.41 1112.3,-262.7"/>
</g>
<!-- [root] var.kube_config -->
<g id="node12" class="node">
<title>[root] var.kube_config</title>
<polygon fill="none" stroke="black" points="431.6,-36 310.6,-36 310.6,0 437.6,0 437.6,-30 431.6,-36"/>
<polyline fill="none" stroke="black" points="431.6,-36 431.6,-30 "/>
<polyline fill="none" stroke="black" points="437.6,-30 431.6,-30 "/>
<text text-anchor="middle" x="374.1" y="-14.3" font-family="Times,serif" font-size="14.00">var.kube_config</text>
</g>
<!-- [root] provider[&quot;registry.terraform.io/hashicorp/kubernetes&quot;]&#45;&gt;[root] var.kube_config -->
<g id="edge18" class="edge">
<title>[root] provider[&quot;registry.terraform.io/hashicorp/kubernetes&quot;]&#45;&gt;[root] var.kube_config</title>
<path fill="none" stroke="black" d="M374.1,-71.7C374.1,-63.98 374.1,-54.71 374.1,-46.11"/>
<polygon fill="black" stroke="black" points="377.6,-46.1 374.1,-36.1 370.6,-46.1 377.6,-46.1"/>
</g>
<!-- [root] provider[&quot;registry.terraform.io/hashicorp/kubernetes&quot;] (close) -->
<g id="node14" class="node">
<title>[root] provider[&quot;registry.terraform.io/hashicorp/kubernetes&quot;] (close)</title>
<ellipse fill="none" stroke="black" cx="836.1" cy="-522" rx="326.04" ry="18"/>
<text text-anchor="middle" x="836.1" y="-518.3" font-family="Times,serif" font-size="14.00">[root] provider[&quot;registry.terraform.io/hashicorp/kubernetes&quot;] (close)</text>
</g>
<!-- [root] provider[&quot;registry.terraform.io/hashicorp/kubernetes&quot;] (close)&#45;&gt;[root] kubernetes_service.kafkaservice (expand) -->
<g id="edge15" class="edge">
<title>[root] provider[&quot;registry.terraform.io/hashicorp/kubernetes&quot;] (close)&#45;&gt;[root] kubernetes_service.kafkaservice (expand)</title>
<path fill="none" stroke="black" d="M836.1,-503.87C836.1,-479.67 836.1,-435.21 836.1,-406.39"/>
<polygon fill="black" stroke="black" points="839.6,-406.19 836.1,-396.19 832.6,-406.19 839.6,-406.19"/>
</g>
<!-- [root] provider[&quot;registry.terraform.io/hashicorp/kubernetes&quot;] (close)&#45;&gt;[root] kubernetes_service.redditproducer (expand) -->
<g id="edge16" class="edge">
<title>[root] provider[&quot;registry.terraform.io/hashicorp/kubernetes&quot;] (close)&#45;&gt;[root] kubernetes_service.redditproducer (expand)</title>
<path fill="none" stroke="black" d="M781.72,-504.23C749.49,-494.29 708.43,-481.63 674.45,-471.15"/>
<polygon fill="black" stroke="black" points="675.19,-467.72 664.6,-468.12 673.13,-474.41 675.19,-467.72"/>
</g>
<!-- [root] provider[&quot;registry.terraform.io/hashicorp/kubernetes&quot;] (close)&#45;&gt;[root] kubernetes_service.zookeeper (expand) -->
<g id="edge17" class="edge">
<title>[root] provider[&quot;registry.terraform.io/hashicorp/kubernetes&quot;] (close)&#45;&gt;[root] kubernetes_service.zookeeper (expand)</title>
<path fill="none" stroke="black" d="M877.98,-504.05C901.92,-494.37 932.14,-482.14 957.53,-471.86"/>
<polygon fill="black" stroke="black" points="959.05,-475.03 967,-468.03 956.42,-468.54 959.05,-475.03"/>
</g>
<!-- [root] root -->
<g id="node15" class="node">
<title>[root] root</title>
<ellipse fill="none" stroke="black" cx="836.1" cy="-594" rx="58.49" ry="18"/>
<text text-anchor="middle" x="836.1" y="-590.3" font-family="Times,serif" font-size="14.00">[root] root</text>
</g>
<!-- [root] root&#45;&gt;[root] provider[&quot;registry.terraform.io/hashicorp/kubernetes&quot;] (close) -->
<g id="edge19" class="edge">
<title>[root] root&#45;&gt;[root] provider[&quot;registry.terraform.io/hashicorp/kubernetes&quot;] (close)</title>
<path fill="none" stroke="black" d="M836.1,-575.7C836.1,-567.98 836.1,-558.71 836.1,-550.11"/>
<polygon fill="black" stroke="black" points="839.6,-550.1 836.1,-540.1 832.6,-550.1 839.6,-550.1"/>
</g>
</g>
</svg>
